<svg width="89" height="87" viewBox="0 0 89 87" fill="none" xmlns="http://www.w3.org/2000/svg">
<path fill-rule="evenodd" clip-rule="evenodd" d="M12.9841 6.73936C9.53142 6.73936 6.73248 9.54115 6.73248 12.9973V73.8531C6.73248 77.3093 9.53142 80.111 12.9841 80.111H75.5561C79.0088 80.111 81.8077 77.3093 81.8077 73.8531V12.9973C81.8077 9.54116 79.0088 6.73936 75.5561 6.73936H12.9841ZM0 12.9973C0 5.81911 5.81317 0 12.9841 0H75.5561C82.727 0 88.5402 5.81912 88.5402 12.9973V73.8531C88.5402 81.0313 82.727 86.8504 75.5561 86.8504H12.9841C5.81317 86.8504 0 81.0313 0 73.8531V12.9973Z" fill="#101010"/>
<path d="M39.2283 29.8457C39.2283 20.218 37.7941 18.2925 26.7991 18.2925H14.809C9.28611 18.2925 4.80896 22.7696 4.80896 28.2925V71.835C4.80896 77.3579 9.28611 81.835 14.809 81.835H75.5988C81.1216 81.835 85.5988 77.3579 85.5988 71.835V39.8457C85.5988 34.3228 81.1216 29.8457 75.5988 29.8457H39.2283Z" stroke="#101010" stroke-width="5"/>
<path d="M65.1057 49.4975C65.1057 48.2151 66.1443 47.1755 67.4253 47.1755H70.1094C71.3905 47.1755 72.429 48.2151 72.429 49.4975V84.327C72.429 85.6094 71.3905 86.6489 70.1094 86.6489H67.4253C66.1443 86.6489 65.1057 85.6094 65.1057 84.327V49.4975Z" fill="#101010"/>
<path d="M51.3705 70.5777C50.0894 70.5777 49.0509 69.5381 49.0509 68.2557L49.0509 65.5689C49.0509 64.2865 50.0894 63.2469 51.3705 63.2469H86.1644C87.4455 63.2469 88.484 64.2865 88.484 65.5689V68.2557C88.484 69.5381 87.4455 70.5777 86.1644 70.5777L51.3705 70.5777Z" fill="#101010"/>
</svg>
