<svg width="89" height="87" viewBox="0 0 89 87" fill="none" xmlns="http://www.w3.org/2000/svg">
<path fill-rule="evenodd" clip-rule="evenodd" d="M12.9841 6.73936C9.53142 6.73936 6.73248 9.54115 6.73248 12.9973V73.8531C6.73248 77.3093 9.53142 80.111 12.9841 80.111H75.5561C79.0088 80.111 81.8077 77.3093 81.8077 73.8531V12.9973C81.8077 9.54116 79.0088 6.73936 75.5561 6.73936H12.9841ZM0 12.9973C0 5.81911 5.81317 0 12.9841 0H75.5561C82.727 0 88.5402 5.81912 88.5402 12.9973V73.8531C88.5402 81.0313 82.727 86.8504 75.5561 86.8504H12.9841C5.81317 86.8504 0 81.0313 0 73.8531V12.9973Z" fill="#101010"/>
<circle cx="44" cy="29" r="13" stroke="#101010" stroke-width="5"/>
<path d="M19 68C19 68 22.5 51 43.5 51C64.5 51 68.5 68 68.5 68" stroke="#101010" stroke-width="5" stroke-linecap="round"/>
</svg>
