<svg width="89" height="87" viewBox="0 0 89 87" fill="none" xmlns="http://www.w3.org/2000/svg">
<rect x="3.36621" y="6.03979" width="81.8077" height="16.9123" rx="6" fill="#F3B52A"/>
<path fill-rule="evenodd" clip-rule="evenodd" d="M22.0576 25.032V40.6618H4.80896V45.6618H22.0576V61.1346H4.80896V66.1346H22.0576L22.0576 83.7607H27.0576L27.0576 66.1346H41.8062V83.7607H46.8062V66.1346H61.5548V83.7607H66.5548V66.1346H85.5988V61.1346H66.5548V45.6618H85.5988V40.6618H66.5548V25.032H61.5548V40.6618H46.8062V25.032H41.8062V40.6618H27.0576V25.032H22.0576ZM46.8062 61.1346H61.5548V45.6618H46.8062L46.8062 61.1346ZM41.8062 45.6618H27.0576V61.1346H41.8062L41.8062 45.6618Z" fill="#101010"/>
<path fill-rule="evenodd" clip-rule="evenodd" d="M12.9841 6.73936C9.53142 6.73936 6.73248 9.54115 6.73248 12.9973V73.8531C6.73248 77.3093 9.53142 80.111 12.9841 80.111H75.5561C79.0088 80.111 81.8077 77.3093 81.8077 73.8531V12.9973C81.8077 9.54116 79.0088 6.73936 75.5561 6.73936H12.9841ZM0 12.9973C0 5.81911 5.81317 0 12.9841 0H75.5561C82.727 0 88.5402 5.81912 88.5402 12.9973V73.8531C88.5402 81.0313 82.727 86.8504 75.5561 86.8504H12.9841C5.81317 86.8504 0 81.0313 0 73.8531V12.9973Z" fill="#101010"/>
<line x1="4.80896" y1="22.9946" x2="86.5606" y2="22.9946" stroke="#101010" stroke-width="6"/>
</svg>
